<svg xmlns="http://www.w3.org/2000/svg" width="22.612" height="29.912" viewBox="0 0 22.612 29.912">
  <g id="شعار_بوابة_الخيل_Recovered_-07" data-name="شعار بوابة الخيل [Recovered]-07" transform="translate(0)">
    <path id="Path_6118" data-name="Path 6118" d="M31.067,3.2H18.4a.893.893,0,0,0-.9.9v8.253a.893.893,0,0,0,.9.9H31.067a.893.893,0,0,0,.9-.9V4.1A.971.971,0,0,0,31.067,3.2Zm-6.331,7.236a2.883,2.883,0,1,1,2.883-2.883A2.933,2.933,0,0,1,24.736,10.436Z" transform="translate(-13.374 -1.956)" fill="#e7c139"/>
    <path id="Path_6119" data-name="Path 6119" d="M25.2,2.244,25.991,1h4.3l.848,1.244Z" transform="translate(-16.721 -1)" fill="#e7c139"/>
    <path id="Path_6120" data-name="Path 6120" d="M20.375,26.435c-2.148,3.787-4.24,7.518-6.388,11.306l-.678,1.187c-.961,1.7-.961,1.7-3.109,1.413,2.883-5.088,5.709-10.119,8.649-15.319-.848-.057-1.526-.057-2.318-.113V23.1H26.707v1.865H24.332c2.883,5.2,5.653,10.288,8.479,15.376-2.092.339-2.148.339-3.109-1.357l-6.444-11.7c-.17-.283-.283-.509-.622-1.018V40.454H20.6V26.548C20.6,26.492,20.488,26.492,20.375,26.435Z" transform="translate(-10.2 -10.607)" fill="#e7c139"/>
  </g>
</svg>
