<svg id="Group_869" data-name="Group 869" xmlns="http://www.w3.org/2000/svg" xmlns:xlink="http://www.w3.org/1999/xlink" width="82.902" height="75.601" viewBox="0 0 82.902 75.601">
  <defs>
    <clipPath id="clip-path">
      <path id="Path_8053" data-name="Path 8053" d="M0,0H82.9V75.6H0Z" fill="#e7c139"/>
    </clipPath>
  </defs>
  <g id="Mask_Group_58" data-name="Mask Group 58" transform="translate(0 0)" clip-path="url(#clip-path)">
    <path id="Path_8032" data-name="Path 8032" d="M75.7,70.339H7.2a7.212,7.212,0,0,1-7.2-7.2V14.923a7.212,7.212,0,0,1,7.2-7.2H75.7a7.212,7.212,0,0,1,7.205,7.2V63.137a7.212,7.212,0,0,1-7.205,7.2M7.2,12.766a2.16,2.16,0,0,0-2.159,2.157V63.137A2.16,2.16,0,0,0,7.2,65.295H75.7a2.162,2.162,0,0,0,2.161-2.157V14.923A2.162,2.162,0,0,0,75.7,12.766Z" transform="translate(0 5.262)" fill="#e7c139"/>
    <path id="Path_8033" data-name="Path 8033" d="M49.726,15.505H44.682V10.4a5.358,5.358,0,0,0-5.351-5.351H24.675A5.358,5.358,0,0,0,19.325,10.4v5.11H14.28V10.4A10.408,10.408,0,0,1,24.675,0H39.331a10.408,10.408,0,0,1,10.4,10.4Z" transform="translate(9.732 0)" fill="#e7c139"/>
    <rect id="Rectangle_3099" data-name="Rectangle 3099" width="9.6" height="27.728" transform="translate(36.936 30.427)" fill="#e7c139"/>
    <rect id="Rectangle_3100" data-name="Rectangle 3100" width="28.448" height="9.6" transform="translate(27.513 39.492)" fill="#e7c139"/>
  </g>
</svg>
