<svg xmlns="http://www.w3.org/2000/svg" width="35.136" height="40.155" viewBox="0 0 35.136 40.155">
  <path id="Icon_awesome-copy" data-name="Icon awesome-copy" d="M25.1,35.136v3.137a1.882,1.882,0,0,1-1.882,1.882H1.882A1.882,1.882,0,0,1,0,38.273V9.411A1.882,1.882,0,0,1,1.882,7.529H7.529V30.744a4.4,4.4,0,0,0,4.392,4.392Zm0-26.979V0H11.921a1.882,1.882,0,0,0-1.882,1.882V30.744a1.882,1.882,0,0,0,1.882,1.882H33.254a1.882,1.882,0,0,0,1.882-1.882V10.039H26.979A1.888,1.888,0,0,1,25.1,8.157Zm9.488-2.434L29.413.551A1.882,1.882,0,0,0,28.082,0h-.475V7.529h7.529V7.054a1.882,1.882,0,0,0-.551-1.331Z" fill="#fff"/>
</svg>
