<svg xmlns="http://www.w3.org/2000/svg" width="64.85" height="69.641" viewBox="0 0 64.85 69.641">
  <path id="شعار_بوابة_الخيل_Recovered_-08" data-name="شعار بوابة الخيل [Recovered]-08" d="M77.494,35.906a32.933,32.933,0,0,0-2.736-8.793c-1.563-3.126-3.322-6.057-5.08-8.988-.2-.391-.2-.782.2-.977.586-.391.586-.782.391-1.368A32.577,32.577,0,0,1,68.7,11.872c-.2-.391-.391-.586-.782-.586H62.644a1.075,1.075,0,0,0-.977.586,1.716,1.716,0,0,0-.2,1.368,29.642,29.642,0,0,0,.586,4.1,38.393,38.393,0,0,0,2.54,4.885,54.444,54.444,0,0,1,4.689,14.459,33.576,33.576,0,0,1-.782,12.505,19.4,19.4,0,0,1-3.322,7.034,30.535,30.535,0,0,1-7.62,7.425,21.224,21.224,0,0,1-8.988,2.931,23.358,23.358,0,0,1-10.942-1.563,18.467,18.467,0,0,1-6.057-4.1,24.93,24.93,0,0,1-6.643-9.574,26.888,26.888,0,0,1-1.759-10.356A34.685,34.685,0,0,1,26.3,26.331c.977-2.54,2.149-4.885,3.322-7.425A15.125,15.125,0,0,0,30.99,15.78a22.437,22.437,0,0,0,.2-3.712A1.336,1.336,0,0,0,29.818,10.7H24.542c-.391,0-.586.2-.782.586A23.288,23.288,0,0,1,22.2,15.194a.952.952,0,0,0,.391,1.563c.391.2.391.391.2.977-1.759,3.322-3.908,6.643-5.471,9.965-.977,2.345-1.563,5.08-2.345,7.62A64.647,64.647,0,0,0,13.6,46.066,45.9,45.9,0,0,0,14.968,57.79a26.473,26.473,0,0,0,4.689,9.379,32.629,32.629,0,0,0,11.919,9.965A31.716,31.716,0,0,0,43.5,80.26a42.328,42.328,0,0,0,7.034-.2,36.878,36.878,0,0,0,6.643-1.759c.977-.391,1.954-.782,2.736-1.172h0c.391-.2.977-.391,1.368-.586.2,0,.391-.2.586-.2a11.207,11.207,0,0,0,1.368-.782h0c1.172-.782,2.149-1.563,3.126-2.345l.2-.2c.391-.391.977-.782,1.368-1.172h0a41.243,41.243,0,0,0,2.931-2.931c.2-.2.2-.391.391-.391a10.738,10.738,0,0,0,1.368-1.759h0c.2-.391.586-.782.782-1.172v-.2h0v-.2h0v-.2h0a8.5,8.5,0,0,0,.782-1.368A30.642,30.642,0,0,0,77.884,50.56,37.133,37.133,0,0,0,77.494,35.906Zm-59.986,9.77c-.782,0-1.172-.586-1.172-1.368V42.94h0c0-1.172.2-2.149.2-3.322A1.126,1.126,0,0,1,17.7,38.446h.2c2.345,0,2.736.2,2.54,2.54,0,1.172-.2,2.345-.2,3.322s-.586,1.368-1.563,1.368ZM22.588,61.5a1.436,1.436,0,0,1-1.563-.782c-.2-.586-.586-.977-.782-1.563l-1.172-2.345c-.391-.782-.2-1.172.391-1.759.2,0,.2-.2.391-.2,2.149-1.172,2.345-.977,3.322,1.172a21.356,21.356,0,0,0,1.563,2.931.718.718,0,0,1,.2.586C24.933,60.33,23.956,61.112,22.588,61.5Zm14.068,9.184-.977,1.954a1.2,1.2,0,0,1-1.172.2l-4.689-1.759a.42.42,0,0,1-.391-.391c-.391-.586,0-1.954.586-2.736.391-.586.977-.586,1.759-.2a20.834,20.834,0,0,0,3.712,1.368C36.07,69.123,36.656,69.513,36.656,70.686Zm31.458-12.9a19.72,19.72,0,0,0,1.368-2.931,1.371,1.371,0,0,1,1.759-.782,4.9,4.9,0,0,1,1.368.782,1.951,1.951,0,0,1,.782.977l-1.172,2.345-1.172,2.345a1.427,1.427,0,0,1-1.954.782C66.942,60.135,66.942,59.744,68.115,57.79ZM56.391,72.444a22.92,22.92,0,0,1-.977-2.149c.391-.391.586-.782.977-.977,1.563-.586,3.126-1.368,4.494-1.954.2-.2.586,0,.977.2.2.2.586.391.586.782.782,1.954.977,2.54-1.368,3.322a23.836,23.836,0,0,0-3.322,1.368A1.774,1.774,0,0,1,56.391,72.444ZM74.758,45.675c-.391,0-.977.2-1.368.2A1.488,1.488,0,0,1,71.827,44.5c0-1.563-.2-3.126-.2-4.689a1.3,1.3,0,0,1,.977-1.368,3.33,3.33,0,0,1,1.954,0c.586,0,.977.391.977,1.172,0,1.172.2,2.345.2,3.322h0v1.368C75.931,45.089,75.54,45.48,74.758,45.675Z" transform="translate(-13.6 -10.7)" fill="#e7c139"/>
</svg>
