<svg xmlns="http://www.w3.org/2000/svg" width="50" height="50" viewBox="0 0 75.232 61.948">
  <g id="شعار_بوابة_الخيل_Recovered_-09" data-name="شعار بوابة الخيل [Recovered]-09" transform="translate(-4.2 -6)">
    <path id="Path_6121" data-name="Path 6121" d="M63.115,40.945a6.364,6.364,0,0,1,6.209,1.877h5.054A36.577,36.577,0,0,0,37.7,6H30.048A25.791,25.791,0,0,0,4.2,31.7v9.964A13.6,13.6,0,0,0,11.564,53.8a15,15,0,0,1,29.891,1.588H65.714a8.817,8.817,0,0,0,7.076-3.61H69.324A6.316,6.316,0,0,1,64.559,53.8a6.709,6.709,0,0,1-6.5-8.086A6.558,6.558,0,0,1,63.115,40.945Zm-32.057-9.1H27.015a4.869,4.869,0,0,1-4.91-4.91V22.75a4.869,4.869,0,0,1,4.91-4.91h4.043Zm20.5-4.91a4.869,4.869,0,0,1-4.91,4.91H36.834V17.7h9.819a4.869,4.869,0,0,1,4.91,4.91Z" transform="translate(0)" fill="#e7c139"/>
    <path id="Path_6122" data-name="Path 6122" d="M23.33,56.4A12.2,12.2,0,0,1,11.2,44.274,12.328,12.328,0,0,1,23.33,32a12.2,12.2,0,0,1,0,24.4Zm0-18.916a6.787,6.787,0,1,0,6.787,6.787A6.779,6.779,0,0,0,23.33,37.487Z" transform="translate(3.108 11.544)" fill="#e7c139"/>
    <circle id="Ellipse_17" data-name="Ellipse 17" cx="3.899" cy="3.899" r="3.899" transform="translate(60.66 43.4)" fill="#e7c139"/>
    <rect id="Rectangle_2861" data-name="Rectangle 2861" width="14.296" height="3.754" transform="translate(65.137 45.421)" fill="#e7c139"/>
  </g>
</svg>
